<?xml version="1.0" encoding="utf-8"?>
<!-- Generator: Adobe Illustrator 28.1.0, SVG Export Plug-In . SVG Version: 6.00 Build 0)  -->
<svg version="1.1" id="レイヤー_1" xmlns="http://www.w3.org/2000/svg" xmlns:xlink="http://www.w3.org/1999/xlink" x="0px"
	 y="0px" viewBox="0 0 512 512" enable-background="new 0 0 512 512" xml:space="preserve">
<circle fill="#FDCF0B" cx="256" cy="256" r="256"/>
<path fill="#FDBD08" d="M249.996,0.147L256,512c141.385,0,256-114.615,256-256S397.385,0,256,0"/>
<circle fill="#FDCF0B" cx="256" cy="256" r="199"/>
<path fill="#FDBD08" d="M396.714,396.714c77.714-77.714,77.714-203.714,0-281.429s-203.714-77.714-281.429,0L396.714,396.714z"/>
<g>
	<path fill="#373939" d="M372.389,267.128"/>
	<path fill="#373939" d="M390.068,294.944"/>
</g>
<g>
	<path fill="none" d="M152.175,304.772c2.346-3.351,5.401-8.229,8.636-13.396c4.5-7.186,9.414-15.032,14.399-22.08
		c-7.491-1.898-18.972-5.787-31.294-13.559c-19.114-12.056-44.021-36.147-54.129-82.457c-0.054-0.246-0.09-0.494-0.115-0.742
		C76.806,198.117,70,226.535,70,256c0,41.774,13.682,81.444,38.921,113.898C119.755,353.445,146.524,312.846,152.175,304.772z"/>
	<path fill="none" d="M184.027,257.885l9.911-12.01c-10.265-7.327-31.124-23.919-46.391-47.224c-0.758-0.581-1.404-1.333-1.86-2.245
		c-2.37-4.74-8.82-7.958-10.939-9.017l-0.152-0.076c-1.559-0.779-3.095-1.491-4.605-2.142l-17.124,16.011
		C135.266,247.721,176.245,256.602,184.027,257.885z"/>
	<path fill="none" d="M387.522,124.478C352.391,89.347,305.682,70,256,70s-96.391,19.347-131.522,54.478
		c-12.554,12.554-23.08,26.592-31.44,41.71c0.75-0.407,1.579-0.673,2.447-0.761c0.761-0.077,17.557-1.62,39.206,7.621
		c-3.199-9.078-5.203-18.792-5.422-29.056c-0.038-1.772,0.649-3.482,1.903-4.736c1.253-1.253,2.963-1.933,4.736-1.901
		c0.806,0.018,19.985,0.544,42.959,10.665c20.199,8.898,47.083,27.119,63.254,63.761c8.422-2.599,24.639-6.212,44.687-3.838
		c24.329,2.88,58.758,15.453,89.87,57.511c1.228-0.291,2.505-0.453,3.822-0.453c9.113,0,16.5,7.387,16.5,16.5
		c0,4.77-2.028,9.064-5.265,12.077c2.155,7.084,4.157,16.423,4.68,27.641c0.857,18.417-2.318,44.915-19.038,75.735
		c3.478-3.004,6.862-6.149,10.145-9.431C422.653,352.391,442,305.682,442,256S422.653,159.609,387.522,124.478z M248,145
		c-3.866,0-7-3.134-7-7c0-3.866,3.134-7,7-7s7,3.134,7,7C255,141.866,251.866,145,248,145z M271.677,186.491
		c-0.896,0.423-1.841,0.624-2.771,0.624c-2.438,0-4.773-1.376-5.883-3.726l-8.5-18c-1.533-3.246-0.144-7.12,3.102-8.653
		c3.245-1.534,7.12-0.144,8.653,3.102l8.5,18C276.312,181.084,274.923,184.958,271.677,186.491z M330.483,178.367l-6.718,18.738
		c-0.952,2.655-3.453,4.309-6.119,4.309c-0.729,0-1.469-0.124-2.193-0.383c-3.38-1.211-5.137-4.933-3.926-8.312l6.718-18.738
		c1.213-3.38,4.937-5.134,8.312-3.925C329.938,171.267,331.694,174.988,330.483,178.367z M337.95,154.95
		c-2.734,2.734-7.166,2.734-9.899,0c-2.734-2.734-2.734-7.166,0-9.899c2.734-2.734,7.166-2.734,9.899,0
		C340.683,147.784,340.683,152.216,337.95,154.95z M386.161,211.279l-18,8.5c-0.896,0.423-1.841,0.624-2.771,0.624
		c-2.438,0-4.773-1.376-5.883-3.726c-1.532-3.246-0.144-7.12,3.103-8.653l18-8.5c3.246-1.535,7.12-0.144,8.653,3.102
		C390.796,205.872,389.407,209.746,386.161,211.279z M408,200c-3.866,0-7-3.134-7-7c0-3.866,3.134-7,7-7s7,3.134,7,7
		C415,196.866,411.866,200,408,200z"/>
	<path fill="none" d="M348.362,417.519c24.184-31.204,36.32-64.032,35.1-94.934c-0.889-22.5-8.574-36.601-9.18-37.678
		c-24.297-38.157-54.023-59.681-88.357-63.977c-25.686-3.212-44.628,4.91-44.816,4.992c-1.622,0.71-3.471,0.73-5.106,0.052
		c-1.635-0.679-2.931-1.992-3.573-3.642c-15.741-40.433-45.579-58.174-67.987-65.946l-15.68,16.914
		c16.308,39.249,57.653,65.358,58.168,65.678c1.593,0.989,2.681,2.619,2.984,4.47c0.303,1.851-0.208,3.742-1.401,5.188
		l-16.537,20.039c-6.679,8.095-13.834,19.52-20.147,29.601c-3.471,5.542-6.468,10.328-9.004,13.951
		c-1.817,2.596-5.975,8.795-11.115,16.519c8.323,0.225,15.487,2.444,21.382,6.669c11.9,8.53,13.783,22.037,13.857,22.607
		c0.464,3.56-2.046,6.821-5.605,7.285c-0.285,0.037-0.568,0.056-0.848,0.056c-3.201,0-5.985-2.364-6.431-5.616
		c-0.037-0.241-1.419-8.744-8.675-13.857c-5.479-3.862-13.115-5.042-22.711-3.534c-2.521,3.807-5.086,7.687-7.587,11.473
		c8.885,0.016,16.484,2.255,22.687,6.701c11.899,8.53,13.783,22.037,13.857,22.607c0.463,3.561-2.046,6.821-5.606,7.285
		c-0.285,0.037-0.568,0.056-0.848,0.056c-3.202,0-5.985-2.364-6.431-5.616c-0.038-0.245-1.421-8.745-8.675-13.857
		c-5.75-4.053-13.875-5.152-24.148-3.289c-3.47,5.263-6.39,9.696-8.292,12.586c2.211,2.456,4.489,4.866,6.843,7.22
		C159.609,422.653,206.318,442,256,442c32.925,0,64.54-8.505,92.349-24.462C348.354,417.531,348.357,417.525,348.362,417.519z
		 M328.5,272c8.271,0,15,6.729,15,15c0,2.762-2.238,5-5,5s-5-2.238-5-5c0-2.757-2.243-5-5-5s-5,2.243-5,5c0,2.762-2.238,5-5,5
		s-5-2.238-5-5C313.5,278.729,320.229,272,328.5,272z M319,356c-14.912,0-27-12.088-27-27s12.088-27,27-27c14.912,0,27,12.088,27,27
		S333.912,356,319,356z"/>
	<path fill="none" d="M479.909,161.417c-12.238-28.935-29.761-54.923-52.082-77.244c-22.321-22.321-48.31-39.844-77.244-52.082
		C320.633,19.423,288.81,13,256,13s-64.633,6.423-94.583,19.091c-28.935,12.238-54.924,29.761-77.244,52.082
		c-22.321,22.321-39.844,48.31-52.082,77.244C19.423,191.367,13,223.19,13,256s6.423,64.633,19.091,94.583
		c12.238,28.935,29.761,54.924,52.082,77.244c22.321,22.321,48.31,39.844,77.244,52.082C191.367,492.577,223.19,499,256,499
		s64.633-6.423,94.583-19.091c28.935-12.238,54.923-29.761,77.244-52.082c22.321-22.321,39.844-48.31,52.082-77.244
		C492.577,320.633,499,288.81,499,256S492.577,191.367,479.909,161.417z M475.903,191.901c2.673-0.716,5.409,0.869,6.124,3.536
		c0.714,2.667-0.869,5.409-3.536,6.124l-16.421,4.4c-0.434,0.116-0.869,0.172-1.297,0.172c-2.208,0-4.229-1.474-4.827-3.708
		c-0.714-2.667,0.869-5.409,3.536-6.124L475.903,191.901z M437.098,145.67l14.722-8.5c2.391-1.383,5.45-0.561,6.83,1.83
		c1.381,2.391,0.562,5.449-1.83,6.83l-14.722,8.5c-0.787,0.455-1.647,0.671-2.495,0.671c-1.729,0-3.409-0.897-4.335-2.501
		C433.887,150.109,434.706,147.051,437.098,145.67z M402.371,102.558l12.021-12.021c1.951-1.952,5.118-1.953,7.071,0
		c1.952,1.953,1.952,5.118-0.001,7.071l-12.021,12.021c-0.976,0.976-2.256,1.464-3.535,1.464s-2.56-0.488-3.536-1.465
		C400.418,107.676,400.418,104.51,402.371,102.558z M357.67,69.903l8.5-14.723c1.379-2.392,4.438-3.212,6.83-1.83
		c2.392,1.381,3.211,4.438,1.83,6.83l-8.5,14.723c-0.926,1.604-2.606,2.501-4.335,2.501c-0.848,0-1.708-0.216-2.495-0.671
		C357.108,75.352,356.289,72.294,357.67,69.903z M306.04,49.93l4.399-16.42c0.715-2.667,3.456-4.25,6.124-3.536
		c2.667,0.714,4.25,3.456,3.536,6.124l-4.399,16.42c-0.599,2.234-2.619,3.708-4.827,3.708c-0.429,0-0.863-0.056-1.297-0.172
		C306.909,55.339,305.326,52.597,306.04,49.93z M251,27c0-2.761,2.239-5,5-5c2.762,0,5,2.239,5,5v17c0,2.761-2.238,5-5,5
		c-2.761,0-5-2.239-5-5V27z M195.437,29.974c2.666-0.716,5.409,0.869,6.124,3.536l4.4,16.42c0.715,2.667-0.868,5.409-3.536,6.124
		c-0.433,0.116-0.869,0.172-1.297,0.172c-2.208,0-4.228-1.474-4.827-3.708l-4.4-16.42C191.186,33.43,192.769,30.688,195.437,29.974z
		 M139,53.35c2.394-1.38,5.45-0.561,6.83,1.83l8.5,14.723c1.381,2.392,0.562,5.449-1.83,6.83c-0.788,0.455-1.647,0.671-2.495,0.671
		c-1.729,0-3.409-0.897-4.335-2.501l-8.5-14.723C135.789,57.789,136.608,54.731,139,53.35z M90.537,90.537
		c1.953-1.952,5.118-1.952,7.071,0l12.021,12.021c1.953,1.953,1.953,5.119,0,7.071c-0.977,0.976-2.256,1.464-3.536,1.464
		s-2.559-0.488-3.536-1.464L90.537,97.608C88.584,95.656,88.584,92.49,90.537,90.537z M53.35,139c1.38-2.391,4.438-3.211,6.83-1.83
		l14.723,8.5c2.392,1.381,3.211,4.438,1.83,6.83c-0.926,1.604-2.607,2.501-4.335,2.501c-0.848,0-1.708-0.216-2.495-0.671
		l-14.723-8.5C52.789,144.449,51.969,141.392,53.35,139z M29.974,195.437c0.715-2.667,3.456-4.25,6.124-3.536l16.42,4.4
		c2.667,0.715,4.25,3.457,3.536,6.124c-0.599,2.234-2.619,3.708-4.827,3.708c-0.428,0-0.863-0.056-1.297-0.172l-16.42-4.4
		C30.842,200.845,29.259,198.104,29.974,195.437z M22,256c0-2.761,2.239-5,5-5h17c2.761,0,5,2.239,5,5c0,2.762-2.239,5-5,5H27
		C24.239,261,22,258.762,22,256z M36.097,320.1c-0.433,0.115-0.869,0.171-1.297,0.171c-2.208,0-4.228-1.473-4.827-3.707
		c-0.715-2.667,0.868-5.409,3.536-6.124l16.42-4.399c2.666-0.709,5.409,0.868,6.124,3.536c0.715,2.667-0.868,5.409-3.536,6.124
		L36.097,320.1z M74.903,366.33l-14.723,8.5c-0.788,0.455-1.647,0.671-2.495,0.671c-1.729,0-3.409-0.896-4.335-2.501
		c-1.381-2.392-0.562-5.449,1.83-6.83l14.723-8.5c2.394-1.381,5.449-0.562,6.83,1.83S77.294,364.949,74.903,366.33z
		 M109.629,409.441l-12.021,12.021c-0.976,0.977-2.256,1.465-3.536,1.465s-2.559-0.488-3.535-1.464
		c-1.953-1.953-1.953-5.119,0-7.071l12.021-12.021c1.952-1.953,5.119-1.952,7.071-0.001
		C111.582,404.323,111.582,407.489,109.629,409.441z M154.33,442.098l-8.5,14.722c-0.926,1.604-2.607,2.501-4.335,2.501
		c-0.848,0-1.708-0.216-2.495-0.671c-2.392-1.381-3.211-4.438-1.83-6.83l8.5-14.722c1.38-2.392,4.437-3.213,6.83-1.83
		C154.892,436.648,155.711,439.706,154.33,442.098z M205.96,462.07l-4.4,16.421c-0.599,2.234-2.619,3.707-4.827,3.707
		c-0.428,0-0.863-0.056-1.297-0.171c-2.667-0.715-4.25-3.457-3.536-6.124l4.4-16.421c0.715-2.668,3.457-4.25,6.124-3.536
		C205.092,456.661,206.675,459.403,205.96,462.07z M261,485c0,2.762-2.238,5-5,5c-2.761,0-5-2.238-5-5v-17c0-2.762,2.239-5,5-5
		c2.762,0,5,2.238,5,5V485z M316.563,482.027c-0.434,0.115-0.869,0.171-1.297,0.171c-2.208,0-4.229-1.473-4.827-3.707l-4.399-16.421
		c-0.714-2.667,0.869-5.409,3.536-6.124c2.672-0.709,5.41,0.869,6.124,3.536l4.399,16.421
		C320.813,478.57,319.23,481.312,316.563,482.027z M373,458.649c-0.787,0.454-1.647,0.671-2.495,0.671
		c-1.729,0-3.409-0.896-4.335-2.501l-8.5-14.722c-1.381-2.392-0.562-5.449,1.83-6.83c2.391-1.381,5.449-0.562,6.83,1.83l8.5,14.722
		C376.211,454.211,375.392,457.269,373,458.649z M421.463,421.463c-0.976,0.977-2.256,1.465-3.535,1.465s-2.56-0.488-3.535-1.465
		l-12.021-12.021c-1.953-1.952-1.953-5.118,0-7.07c1.951-1.953,5.119-1.953,7.07,0l12.021,12.021
		C423.416,416.345,423.416,419.511,421.463,421.463z M256,455c-109.905,0-199-89.095-199-199S146.095,57,256,57s199,89.095,199,199
		S365.905,455,256,455z M458.649,373c-0.926,1.604-2.606,2.501-4.335,2.501c-0.848,0-1.708-0.216-2.495-0.671l-14.722-8.5
		c-2.392-1.381-3.211-4.438-1.83-6.83c1.38-2.392,4.437-3.214,6.83-1.83l14.722,8.5C459.211,367.551,460.03,370.608,458.649,373z
		 M482.027,316.563c-0.599,2.233-2.619,3.707-4.827,3.707c-0.429,0-0.863-0.055-1.297-0.171l-16.421-4.399
		c-2.667-0.715-4.25-3.457-3.536-6.124c0.715-2.667,3.456-4.251,6.124-3.536l16.421,4.399
		C481.158,311.154,482.741,313.896,482.027,316.563z M485,261h-17c-2.762,0-5-2.238-5-5c0-2.761,2.238-5,5-5h17c2.762,0,5,2.239,5,5
		C490,258.762,487.762,261,485,261z"/>
	<path fill="#373939" d="M256,0C114.615,0,0,114.615,0,256s114.615,256,256,256s256-114.615,256-256S397.385,0,256,0z
		 M427.827,427.827c-22.321,22.321-48.31,39.844-77.244,52.082C320.633,492.577,288.81,499,256,499s-64.633-6.423-94.583-19.091
		c-28.935-12.238-54.924-29.761-77.244-52.082c-22.321-22.321-39.844-48.31-52.082-77.244C19.423,320.633,13,288.81,13,256
		s6.423-64.633,19.091-94.583c12.238-28.935,29.761-54.923,52.082-77.244c22.321-22.321,48.31-39.844,77.244-52.082
		C191.367,19.423,223.19,13,256,13s64.633,6.423,94.583,19.091c28.935,12.238,54.923,29.761,77.244,52.082
		c22.321,22.321,39.844,48.31,52.082,77.244C492.577,191.367,499,223.19,499,256s-6.423,64.633-19.091,94.583
		C467.671,379.517,450.148,405.506,427.827,427.827z"/>
	<path fill="#373939" d="M256,57C146.095,57,57,146.095,57,256s89.095,199,199,199s199-89.095,199-199S365.905,57,256,57z
		 M89.673,172.539c0.025,0.248,0.061,0.496,0.115,0.742c10.107,46.31,35.015,70.401,54.129,82.457
		c12.322,7.772,23.804,11.661,31.294,13.559c-4.985,7.048-9.899,14.895-14.399,22.08c-3.235,5.166-6.291,10.045-8.636,13.396
		c-5.651,8.074-32.42,48.672-43.254,65.126C83.682,337.444,70,297.774,70,256C70,226.535,76.806,198.117,89.673,172.539z
		 M112.865,201.183l17.124-16.011c1.51,0.652,3.046,1.363,4.605,2.142l0.152,0.076c2.12,1.058,8.569,4.276,10.939,9.017
		c0.456,0.912,1.102,1.664,1.86,2.245c15.267,23.305,36.126,39.896,46.391,47.224l-9.911,12.01
		C176.245,256.602,135.266,247.721,112.865,201.183z M124.478,387.522c-2.354-2.354-4.632-4.764-6.843-7.22
		c1.903-2.89,4.822-7.323,8.292-12.586c10.273-1.863,18.398-0.764,24.148,3.289c7.254,5.112,8.637,13.612,8.675,13.857
		c0.446,3.252,3.229,5.616,6.431,5.616c0.28,0,0.563-0.019,0.848-0.056c3.56-0.464,6.07-3.725,5.606-7.285
		c-0.075-0.57-1.958-14.077-13.857-22.607c-6.203-4.446-13.802-6.685-22.687-6.701c2.501-3.786,5.067-7.666,7.587-11.473
		c9.596-1.508,17.232-0.329,22.711,3.534c7.256,5.113,8.638,13.616,8.675,13.857c0.446,3.252,3.23,5.616,6.431,5.616
		c0.28,0,0.563-0.019,0.848-0.056c3.56-0.464,6.069-3.726,5.605-7.285c-0.074-0.57-1.958-14.077-13.857-22.607
		c-5.896-4.225-13.059-6.444-21.382-6.669c5.14-7.724,9.298-13.923,11.115-16.519c2.536-3.623,5.533-8.409,9.004-13.951
		c6.313-10.081,13.468-21.506,20.147-29.601l16.537-20.039c1.194-1.446,1.705-3.338,1.401-5.188c-0.304-1.851-1.392-3.48-2.984-4.47
		c-0.514-0.32-41.859-26.429-58.168-65.678l15.68-16.914c22.408,7.773,52.246,25.513,67.987,65.946
		c0.642,1.65,1.938,2.963,3.573,3.642c1.636,0.679,3.485,0.659,5.106-0.052c0.188-0.083,19.131-8.205,44.816-4.992
		c34.334,4.296,64.061,25.82,88.357,63.977c0.605,1.077,8.291,15.178,9.18,37.678c1.221,30.901-10.916,63.729-35.1,94.934
		c-0.005,0.006-0.009,0.013-0.013,0.019C320.54,433.495,288.925,442,256,442C206.318,442,159.609,422.653,124.478,387.522z
		 M387.522,387.522c-3.283,3.283-6.667,6.427-10.145,9.431c16.719-30.82,19.895-57.318,19.038-75.735
		c-0.522-11.218-2.525-20.557-4.68-27.641c3.237-3.013,5.265-7.306,5.265-12.077c0-9.113-7.387-16.5-16.5-16.5
		c-1.317,0-2.594,0.162-3.822,0.453c-31.112-42.058-65.541-54.631-89.87-57.511c-20.048-2.375-36.265,1.239-44.687,3.838
		c-16.172-36.642-43.056-54.863-63.254-63.761c-22.974-10.121-42.153-10.647-42.959-10.665c-1.772-0.032-3.483,0.648-4.736,1.901
		c-1.254,1.253-1.941,2.964-1.903,4.736c0.219,10.263,2.223,19.977,5.422,29.056c-21.649-9.24-38.445-7.697-39.206-7.621
		c-0.868,0.088-1.697,0.353-2.447,0.761c8.36-15.118,18.886-29.156,31.44-41.71C159.609,89.347,206.318,70,256,70
		s96.391,19.347,131.522,54.478S442,206.318,442,256S422.653,352.391,387.522,387.522z"/>
	<path fill="#373939" d="M266.279,159.838c-1.533-3.246-5.408-4.636-8.653-3.102c-3.246,1.533-4.635,5.407-3.102,8.653l8.5,18
		c1.109,2.35,3.445,3.726,5.883,3.726c0.93,0,1.874-0.201,2.771-0.624c3.246-1.533,4.635-5.407,3.103-8.653L266.279,159.838z"/>
	<circle fill="#373939" cx="248" cy="138" r="7"/>
	<path fill="#373939" d="M326.558,170.055c-3.376-1.208-7.1,0.545-8.312,3.925l-6.718,18.738c-1.211,3.379,0.546,7.101,3.926,8.312
		c0.725,0.26,1.465,0.383,2.193,0.383c2.666,0,5.167-1.654,6.119-4.309l6.718-18.738
		C331.694,174.988,329.938,171.267,326.558,170.055z"/>
	<circle fill="#373939" cx="333" cy="150" r="7"/>
	<path fill="#373939" d="M380.61,199.524l-18,8.5c-3.246,1.533-4.635,5.407-3.103,8.653c1.109,2.35,3.445,3.726,5.883,3.726
		c0.93,0,1.874-0.201,2.771-0.624l18-8.5c3.246-1.533,4.635-5.407,3.103-8.653C387.73,199.38,383.856,197.989,380.61,199.524z"/>
	<circle fill="#373939" cx="408" cy="193" r="7"/>
	<circle fill="#FDCF0B" cx="319" cy="329" r="14"/>
	<linearGradient id="SVGID_1_" gradientUnits="userSpaceOnUse" x1="298.5" y1="329" x2="339.5" y2="329">
		<stop  offset="0.5" style="stop-color:#FC6054"/>
		<stop  offset="0.5" style="stop-color:#DC4038"/>
	</linearGradient>
	<circle fill="url(#SVGID_1_)" cx="319" cy="329" r="14"/>
	<path fill="#373939" d="M319,302c-14.912,0-27,12.088-27,27s12.088,27,27,27c14.912,0,27-12.088,27-27S333.912,302,319,302z
		 M319,343c-7.72,0-14-6.28-14-14s6.28-14,14-14s14,6.28,14,14S326.72,343,319,343z"/>
	<path fill="#373939" d="M318.5,292c2.762,0,5-2.238,5-5c0-2.757,2.243-5,5-5s5,2.243,5,5c0,2.762,2.238,5,5,5s5-2.238,5-5
		c0-8.271-6.729-15-15-15s-15,6.729-15,15C313.5,289.762,315.738,292,318.5,292z"/>
	<path fill="#373939" d="M256,49c2.762,0,5-2.239,5-5V27c0-2.761-2.238-5-5-5c-2.761,0-5,2.239-5,5v17C251,46.761,253.239,49,256,49
		z"/>
	<path fill="#373939" d="M196.301,52.518c0.599,2.234,2.619,3.708,4.827,3.708c0.428,0,0.864-0.056,1.297-0.172
		c2.667-0.715,4.25-3.457,3.536-6.124l-4.4-16.42c-0.714-2.667-3.458-4.252-6.124-3.536c-2.667,0.715-4.25,3.457-3.536,6.124
		L196.301,52.518z"/>
	<path fill="#373939" d="M145.67,74.903c0.926,1.604,2.606,2.501,4.335,2.501c0.848,0,1.708-0.216,2.495-0.671
		c2.392-1.381,3.211-4.438,1.83-6.83l-8.5-14.723c-1.38-2.391-4.437-3.21-6.83-1.83c-2.392,1.381-3.211,4.438-1.83,6.83
		L145.67,74.903z"/>
	<path fill="#373939" d="M102.558,109.629c0.977,0.976,2.256,1.464,3.536,1.464s2.559-0.488,3.536-1.464
		c1.953-1.953,1.953-5.119,0-7.071L97.608,90.537c-1.953-1.952-5.118-1.952-7.071,0c-1.953,1.953-1.953,5.119,0,7.071
		L102.558,109.629z"/>
	<path fill="#373939" d="M55.18,145.83l14.723,8.5c0.788,0.455,1.647,0.671,2.495,0.671c1.728,0,3.409-0.897,4.335-2.501
		c1.381-2.392,0.562-5.449-1.83-6.83l-14.723-8.5c-2.393-1.381-5.45-0.561-6.83,1.83C51.969,141.392,52.789,144.449,55.18,145.83z"
		/>
	<path fill="#373939" d="M33.509,201.56l16.42,4.4c0.434,0.116,0.869,0.172,1.297,0.172c2.208,0,4.228-1.474,4.827-3.708
		c0.715-2.667-0.868-5.409-3.536-6.124l-16.42-4.4c-2.668-0.715-5.409,0.869-6.124,3.536S30.842,200.845,33.509,201.56z"/>
	<path fill="#373939" d="M49,256c0-2.761-2.239-5-5-5H27c-2.761,0-5,2.239-5,5c0,2.762,2.239,5,5,5h17C46.761,261,49,258.762,49,256
		z"/>
	<path fill="#373939" d="M56.053,309.576c-0.714-2.668-3.458-4.245-6.124-3.536l-16.42,4.399c-2.667,0.715-4.25,3.457-3.536,6.124
		c0.599,2.234,2.619,3.707,4.827,3.707c0.428,0,0.864-0.056,1.297-0.171l16.42-4.399C55.185,314.985,56.768,312.243,56.053,309.576z
		"/>
	<path fill="#373939" d="M69.903,357.67l-14.723,8.5c-2.392,1.381-3.211,4.438-1.83,6.83c0.926,1.604,2.606,2.501,4.335,2.501
		c0.848,0,1.708-0.216,2.495-0.671l14.723-8.5c2.392-1.381,3.211-4.438,1.83-6.83S72.297,356.289,69.903,357.67z"/>
	<path fill="#373939" d="M102.558,402.371l-12.021,12.021c-1.953,1.952-1.953,5.118,0,7.071c0.976,0.976,2.255,1.464,3.535,1.464
		s2.56-0.488,3.536-1.465l12.021-12.021c1.953-1.952,1.953-5.118,0-7.071C107.676,400.419,104.51,400.418,102.558,402.371z"/>
	<path fill="#373939" d="M152.5,435.268c-2.393-1.383-5.45-0.562-6.83,1.83l-8.5,14.722c-1.381,2.392-0.562,5.449,1.83,6.83
		c0.788,0.455,1.647,0.671,2.495,0.671c1.728,0,3.409-0.896,4.335-2.501l8.5-14.722C155.711,439.706,154.892,436.648,152.5,435.268z
		"/>
	<path fill="#373939" d="M202.424,455.946c-2.667-0.714-5.409,0.868-6.124,3.536l-4.4,16.421c-0.715,2.667,0.868,5.409,3.536,6.124
		c0.434,0.115,0.869,0.171,1.297,0.171c2.208,0,4.228-1.473,4.827-3.707l4.4-16.421
		C206.675,459.403,205.092,456.661,202.424,455.946z"/>
	<path fill="#373939" d="M256,463c-2.761,0-5,2.238-5,5v17c0,2.762,2.239,5,5,5c2.762,0,5-2.238,5-5v-17
		C261,465.238,258.762,463,256,463z"/>
	<path fill="#373939" d="M315.7,459.482c-0.714-2.667-3.452-4.245-6.124-3.536c-2.667,0.715-4.25,3.457-3.536,6.124l4.399,16.421
		c0.599,2.234,2.619,3.707,4.827,3.707c0.428,0,0.863-0.056,1.297-0.171c2.667-0.715,4.25-3.457,3.536-6.124L315.7,459.482z"/>
	<path fill="#373939" d="M366.33,437.098c-1.381-2.393-4.439-3.211-6.83-1.83c-2.392,1.381-3.211,4.438-1.83,6.83l8.5,14.722
		c0.926,1.604,2.606,2.501,4.335,2.501c0.848,0,1.708-0.217,2.495-0.671c2.392-1.381,3.211-4.438,1.83-6.83L366.33,437.098z"/>
	<path fill="#373939" d="M409.441,402.371c-1.951-1.953-5.119-1.953-7.07,0c-1.953,1.952-1.953,5.118,0,7.07l12.021,12.021
		c0.976,0.977,2.256,1.465,3.535,1.465s2.56-0.488,3.535-1.465c1.953-1.952,1.953-5.118,0-7.07L409.441,402.371z"/>
	<path fill="#373939" d="M456.819,366.17l-14.722-8.5c-2.394-1.384-5.45-0.562-6.83,1.83c-1.381,2.392-0.562,5.449,1.83,6.83
		l14.722,8.5c0.787,0.455,1.647,0.671,2.495,0.671c1.729,0,3.409-0.896,4.335-2.501C460.03,370.608,459.211,367.551,456.819,366.17z
		"/>
	<path fill="#373939" d="M478.491,310.439l-16.421-4.399c-2.668-0.715-5.409,0.869-6.124,3.536
		c-0.714,2.667,0.869,5.409,3.536,6.124l16.421,4.399c0.434,0.116,0.868,0.171,1.297,0.171c2.208,0,4.229-1.474,4.827-3.707
		C482.741,313.896,481.158,311.154,478.491,310.439z"/>
	<path fill="#373939" d="M485,251h-17c-2.762,0-5,2.239-5,5c0,2.762,2.238,5,5,5h17c2.762,0,5-2.238,5-5
		C490,253.239,487.762,251,485,251z"/>
	<path fill="#373939" d="M455.946,202.424c0.599,2.234,2.619,3.708,4.827,3.708c0.428,0,0.863-0.056,1.297-0.172l16.421-4.4
		c2.667-0.715,4.25-3.457,3.536-6.124c-0.715-2.667-3.451-4.252-6.124-3.536l-16.421,4.4
		C456.815,197.016,455.232,199.757,455.946,202.424z"/>
	<path fill="#373939" d="M439.603,155.001c0.848,0,1.708-0.216,2.495-0.671l14.722-8.5c2.392-1.381,3.211-4.439,1.83-6.83
		c-1.38-2.391-4.439-3.213-6.83-1.83l-14.722,8.5c-2.392,1.381-3.211,4.439-1.83,6.83
		C436.193,154.104,437.874,155.001,439.603,155.001z"/>
	<path fill="#373939" d="M405.906,111.093c1.279,0,2.56-0.488,3.535-1.464l12.021-12.021c1.953-1.953,1.953-5.118,0.001-7.071
		c-1.953-1.953-5.12-1.953-7.071,0l-12.021,12.021c-1.953,1.953-1.953,5.118-0.001,7.071
		C403.347,110.605,404.627,111.093,405.906,111.093z"/>
	<path fill="#373939" d="M359.5,76.733c0.787,0.455,1.647,0.671,2.495,0.671c1.729,0,3.409-0.897,4.335-2.501l8.5-14.723
		c1.381-2.392,0.562-5.449-1.83-6.83c-2.393-1.382-5.451-0.562-6.83,1.83l-8.5,14.723C356.289,72.294,357.108,75.352,359.5,76.733z"
		/>
	<path fill="#373939" d="M309.576,56.053c0.434,0.116,0.868,0.172,1.297,0.172c2.208,0,4.229-1.474,4.827-3.708l4.399-16.42
		c0.714-2.667-0.869-5.409-3.536-6.124c-2.668-0.714-5.409,0.868-6.124,3.536l-4.399,16.42
		C305.326,52.597,306.909,55.339,309.576,56.053z"/>
</g>
</svg>
