<?xml version="1.0" encoding="utf-8"?>
<!-- Generator: Adobe Illustrator 28.1.0, SVG Export Plug-In . SVG Version: 6.00 Build 0)  -->
<svg version="1.1" id="レイヤー_1" xmlns="http://www.w3.org/2000/svg" xmlns:xlink="http://www.w3.org/1999/xlink" x="0px"
	 y="0px" viewBox="0 0 401.925 512.5" enable-background="new 0 0 401.925 512.5" xml:space="preserve">
<g>
	<g id="XMLID_00000165224814587901301000000008768851032934965653_">
		<g>
			<path fill="#FEFEF9" d="M347.012,146.071c27.68,55.3,44.49,118.92,41.25,175.79C389.862,267.491,373.912,202.451,347.012,146.071
				z"/>
			<path fill="#F7F8E3" d="M365.132,403.891c14.17-24,21.43-52.08,23.13-82.03C387.312,354.401,380.072,383.131,365.132,403.891z"/>
			<path fill="#54AF79" d="M364.882,401.991c0.1,0.62,0.18,1.25,0.25,1.9C365.062,403.241,364.982,402.611,364.882,401.991z"/>
			<path fill="#54AF79" d="M362.652,394.251c0.2,0.41,0.39,0.85,0.57,1.31C363.042,395.101,362.852,394.671,362.652,394.251z"/>
			<path fill="#54AF79" d="M361.002,391.501c0.25,0.32,0.48,0.65,0.7,1C361.472,392.141,361.242,391.811,361.002,391.501z"/>
			<path fill="#54AF79" d="M345.062,392.881c-0.28,0.29-0.57,0.6-0.85,0.92C344.492,393.471,344.782,393.161,345.062,392.881z"/>
			<path fill="#54AF79" d="M344.202,393.811c-0.28,0.31-0.56,0.64-0.84,0.98C343.642,394.451,343.922,394.121,344.202,393.811z"/>
			<path fill="#F7F8E3" d="M338.522,184.111c-0.09,0.79-0.23,1.55-0.42,2.27C338.292,185.661,338.432,184.901,338.522,184.111z"/>
			<path fill="#F7F8E3" d="M337.892,187.081c-0.15,0.46-0.32,0.9-0.52,1.32C337.562,187.981,337.732,187.541,337.892,187.081z"/>
			<path fill="#F7F8E3" d="M337.372,188.401c-0.19,0.43-0.4,0.83-0.64,1.22C336.962,189.231,337.172,188.831,337.372,188.401z"/>
			<path fill="#F7F8E3" d="M336.732,189.621c-0.23,0.39-0.48,0.76-0.75,1.12C336.242,190.381,336.492,190.011,336.732,189.621z"/>
			<path fill="#F7F8E3" d="M335.982,190.741c-0.4,0.53-0.84,1.02-1.31,1.47C335.142,191.751,335.582,191.271,335.982,190.741z"/>
			<path fill="#F7F8E3" d="M328.762,293.411c0.08,1.1,0.15,2.21,0.2,3.32C328.912,295.621,328.842,294.511,328.762,293.411z"/>
			<path fill="#F7F8E3" d="M327.572,283.401c0.19,1.1,0.35,2.2,0.5,3.3C327.922,285.591,327.752,284.491,327.572,283.401z"/>
			<path fill="#F7F8E3" d="M326.972,280.141c0.22,1.08,0.42,2.17,0.6,3.26C327.392,282.301,327.192,281.221,326.972,280.141z"/>
			<path fill="#F7F8E3" d="M319.532,195.221c0.4,0.14,0.81,0.26,1.23,0.37C320.342,195.481,319.932,195.361,319.532,195.221z"/>
			<path fill="#F7F8E3" d="M263.712,36.471c32.52,23.98,61.38,63.78,83.12,109.24C324.542,101.301,295.252,62.281,263.712,36.471z"
				/>
			<path fill="#F7F8E3" d="M314.652,192.251c0.46,0.45,0.96,0.86,1.48,1.23C315.612,193.111,315.112,192.701,314.652,192.251z"/>
			<path fill="#57B07A" d="M314.652,192.251c-2.34-2.28-3.86-5.57-3.82-9.9c0.18-18.37,27.61-18.08,27.78,0.12
				c0,0.56-0.04,1.11-0.09,1.64c-0.09,0.79-0.23,1.55-0.42,2.27c-0.07,0.23-0.14,0.47-0.21,0.7c-0.16,0.46-0.33,0.9-0.52,1.32
				c-0.2,0.43-0.41,0.83-0.64,1.22c-0.24,0.39-0.49,0.76-0.75,1.12c-0.4,0.53-0.84,1.01-1.31,1.47c-3.61,3.46-9.11,4.6-13.91,3.38
				c-0.42-0.11-0.83-0.23-1.23-0.37c-1.21-0.42-2.36-1-3.4-1.74C315.612,193.111,315.112,192.701,314.652,192.251z"/>
			<path fill="#FEFEF9" d="M310.092,465.071c22.69-16.14,41.47-36.81,55.04-61.18c-14.7,27.72-36.51,49.99-62.18,66.05
				C305.372,468.381,307.752,466.761,310.092,465.071z"/>
			<path fill="#F7F8E3" d="M297.142,445.371c-0.55,0.55-1.06,1.1-1.52,1.64C296.082,446.471,296.582,445.931,297.142,445.371z"/>
			<path fill="#F7F8E3" d="M294.952,447.831c-0.41,0.53-0.78,1.05-1.11,1.56C294.162,448.881,294.532,448.361,294.952,447.831z"/>
			<path fill="#54AF79" d="M365.132,403.891c-13.57,24.37-32.35,45.04-55.04,61.18c-1.35-0.01-2.66-0.09-3.89-0.21
				c-0.62-0.07-1.22-0.14-1.8-0.23c-0.59-0.1-1.16-0.2-1.72-0.31c-0.04-0.02-0.08-0.03-0.12-0.03c-3.85-0.84-6.85-2.3-8.67-4.28
				c-0.36-0.41-0.69-0.83-0.96-1.28c-1.1-1.81-1.34-3.96-0.54-6.36c0.31-0.95,0.79-1.95,1.45-2.98c0.33-0.51,0.7-1.03,1.11-1.56
				c0.21-0.27,0.43-0.54,0.67-0.82c0.46-0.54,0.97-1.09,1.52-1.64c0.83-0.83,1.78-1.69,2.83-2.56
				c15.51-13.46,29.17-28.59,41.28-45.17c0.7-1.03,1.41-1.98,2.11-2.85c0.28-0.34,0.56-0.67,0.84-0.98c0-0.01,0-0.01,0.01-0.01
				c0.28-0.32,0.57-0.63,0.85-0.92c1.02-1.06,2.04-1.94,3.04-2.66c0.22-0.15,0.44-0.3,0.65-0.44c0.11-0.07,0.21-0.13,0.31-0.2
				c0.06-0.03,0.12-0.07,0.18-0.1c0.56-0.33,1.11-0.6,1.65-0.84c1.57-0.64,3.09-0.86,4.51-0.68c0.49,0.07,0.97,0.18,1.43,0.34
				c0.47,0.17,0.92,0.38,1.36,0.63c0.14,0.09,0.29,0.18,0.43,0.27c0.22,0.15,0.44,0.31,0.65,0.49c0.62,0.5,1.2,1.11,1.73,1.81
				c0.24,0.31,0.47,0.64,0.7,1c0.34,0.54,0.66,1.12,0.95,1.75c0.2,0.42,0.39,0.85,0.57,1.31c0.72,1.83,1.28,3.98,1.66,6.43
				C364.982,402.611,365.062,403.241,365.132,403.891z"/>
			<path fill="#F7F8E3" d="M292.932,458.731c0.27,0.45,0.6,0.87,0.96,1.28C293.522,459.611,293.202,459.181,292.932,458.731z"/>
			<path fill="#57B07A" d="M292.592,109.991c0.02,0.01,0.04,0.02,0.06,0.05C292.632,110.021,292.612,110.001,292.592,109.991z"/>
			<path fill="#F7F8E3" d="M292.392,452.371c-0.8,2.4-0.56,4.55,0.54,6.36C291.822,456.931,291.582,454.781,292.392,452.371z"/>
			<path fill="#57B07A" d="M276.572,109.381c-0.18,0.11-0.36,0.21-0.53,0.32C276.222,109.591,276.402,109.481,276.572,109.381z"/>
			<path fill="#57B07A" d="M274.442,110.871c-0.16,0.15-0.33,0.29-0.48,0.45C274.112,111.161,274.282,111.011,274.442,110.871z"/>
			<path fill="#57B07A" d="M298.222,121.451c0.1,18.71-28.78,18.43-28.29-0.33c0.07-4.27,1.65-7.54,4.03-9.8
				c0.15-0.16,0.32-0.3,0.48-0.45c0.51-0.43,1.05-0.82,1.6-1.17c0.17-0.11,0.35-0.21,0.53-0.32c4.88-2.75,11.41-2.54,16.02,0.61
				c0.02,0.01,0.04,0.03,0.06,0.05C295.962,112.321,298.262,116.131,298.222,121.451z"/>
			<path fill="#FEFEF9" d="M256.532,30.851c2.41,1.8,4.8,3.67,7.18,5.62c-8.99-6.64-18.27-12.06-27.75-16.06
				C242.692,23.091,249.552,26.541,256.532,30.851z"/>
			<path fill="#F7F8E3" d="M302.552,470.191c-30.16,19.5-65.52,29.73-101.53,29.78c0-0.11,0-0.21,0-0.32
				C236.672,499.251,272.272,489.021,302.552,470.191z"/>
			<path fill="#F7F8E3" d="M218.022,212.641c-0.15,0.51-0.32,1.01-0.51,1.49C217.692,213.651,217.862,213.151,218.022,212.641z"/>
			<path fill="#F7F8E3" d="M217.312,214.601c-0.19,0.47-0.4,0.93-0.63,1.37C216.912,215.531,217.122,215.071,217.312,214.601z"/>
			<path fill="#F7F8E3" d="M216.242,216.741c-0.45,0.75-0.96,1.46-1.54,2.11C215.282,218.201,215.792,217.491,216.242,216.741z"/>
			<path fill="#F7F8E3" d="M214.082,219.491c0.21-0.2,0.41-0.42,0.61-0.63C214.492,219.081,214.292,219.291,214.082,219.491z"/>
			<path fill="#57B07A" d="M210.722,457.211c0.56-8.76,14.59-7.54,13.46,1.34C223.522,467.391,209.672,466.101,210.722,457.211z"/>
			<path fill="#F7F8E3" d="M208.442,222.821c1.66-0.53,3.07-1.27,4.29-2.17C211.522,221.561,210.102,222.291,208.442,222.821z"/>
			<path fill="#FEFEF9" d="M201.122,442.311c0.05,9.72,0,19.45-0.05,29.18C201.092,461.761,201.102,452.041,201.122,442.311z"/>
			<path fill="#F7F8E3" d="M201.122,269.701c0.07,15.07,0.13,30.14-0.01,45.19C201.092,299.831,201.122,284.761,201.122,269.701z"/>
			<path fill="#F7F8E3" d="M201.072,224.351c-0.02,2.52-0.03,5.03-0.04,7.55c-0.01-2.52-0.03-5.03-0.05-7.55
				C201.012,224.351,201.042,224.351,201.072,224.351z"/>
			<path fill="#F7F8E3" d="M200.982,105.131c0.04-4.67,0.06-9.35,0.08-14.03c0,4.68,0.01,9.35,0.01,14.03
				C201.042,105.131,201.012,105.131,200.982,105.131z"/>
			<path fill="#F7F8E3" d="M201.072,105.641c-0.03,0-0.06,0-0.09,0c0-0.17,0-0.34,0-0.51c0.03,0,0.06,0,0.09,0
				C201.072,105.301,201.072,105.471,201.072,105.641z"/>
			<path fill="#F7F8E3" d="M224.182,458.551c1.13-8.88-12.9-10.1-13.46-1.34C209.672,466.101,223.522,467.391,224.182,458.551z
				 M292.592,109.991c-4.61-3.15-11.14-3.36-16.02-0.61c-0.17,0.1-0.35,0.21-0.53,0.32c-0.55,0.35-1.09,0.74-1.6,1.17
				c-0.16,0.14-0.33,0.29-0.48,0.45c-2.38,2.26-3.96,5.53-4.03,9.8c-0.49,18.76,28.39,19.04,28.29,0.33
				c0.04-5.32-2.26-9.13-5.57-11.41C292.632,110.011,292.612,110.001,292.592,109.991z M388.262,321.861
				c-1.7,29.95-8.96,58.03-23.13,82.03c-0.07-0.65-0.15-1.28-0.25-1.9c-0.38-2.45-0.94-4.6-1.66-6.43c-0.18-0.46-0.37-0.9-0.57-1.31
				c-0.29-0.63-0.61-1.21-0.95-1.75c-0.22-0.35-0.45-0.68-0.7-1c-0.53-0.7-1.11-1.31-1.73-1.81c-0.21-0.18-0.43-0.34-0.65-0.49
				c-0.14-0.09-0.29-0.18-0.43-0.27c-0.44-0.26-0.89-0.47-1.36-0.63c-0.46-0.17-0.94-0.28-1.43-0.34c-1.42-0.19-2.94,0.03-4.51,0.68
				c-0.54,0.24-1.09,0.51-1.65,0.84c-0.06,0.03-0.12,0.07-0.18,0.1c-0.1,0.07-0.2,0.13-0.31,0.2c-0.22,0.14-0.43,0.28-0.65,0.44
				c-1,0.72-2.02,1.6-3.04,2.66c-0.28,0.28-0.57,0.59-0.85,0.92c-0.01,0-0.01,0-0.01,0.01c-0.28,0.31-0.56,0.64-0.84,0.98
				c-0.7,0.87-1.41,1.82-2.11,2.85c-12.11,16.58-25.77,31.71-41.28,45.17c-1.05,0.87-2,1.73-2.83,2.56
				c-0.56,0.56-1.06,1.1-1.52,1.64c-0.24,0.28-0.46,0.55-0.67,0.82c-0.42,0.53-0.79,1.05-1.11,1.56c-0.66,1.03-1.14,2.03-1.45,2.98
				c-0.81,2.41-0.57,4.56,0.54,6.36c0.27,0.45,0.59,0.88,0.96,1.28c1.82,1.98,4.82,3.44,8.67,4.28c0.04,0.01,0.08,0.02,0.12,0.03
				c0.56,0.11,1.13,0.21,1.72,0.31c0.58,0.09,1.18,0.17,1.8,0.23c1.23,0.12,2.54,0.2,3.89,0.21c-2.34,1.69-4.72,3.31-7.14,4.87
				c-0.13,0.1-0.26,0.18-0.4,0.25c-30.28,18.83-65.88,29.06-101.53,29.46c0.02-9.26,0.03-18.53,0.05-27.79c0-0.12,0-0.25,0-0.37
				c0.05-9.73,0.1-19.46,0.05-29.18c0.01-4.1,0.01-8.19,0.02-12.29c33.26,9.57,63.18-2.66,85.71-25.3c2.04-2.04,4.01-4.16,5.91-6.37
				c0.32-0.36,0.63-0.73,0.95-1.1c7.54-8.91,14.07-19.01,19.39-29.78c0-0.01,0.01-0.01,0.01-0.01c2.21-4.48,4.22-9.08,6-13.76
				c0.36-0.94,0.71-1.88,1.05-2.83c0.34-0.93,0.67-1.87,0.98-2.82c0.06-0.15,0.11-0.3,0.15-0.45c0.68-2.02,1.32-4.05,1.91-6.09
				c0.48-1.64,0.93-3.28,1.35-4.93c1.02-4,1.88-8.03,2.56-12.05c0.28-1.64,0.53-3.28,0.75-4.91c1.04-7.72,1.42-15.4,1.1-22.89
				c-0.05-1.11-0.12-2.22-0.2-3.32c-0.16-2.25-0.39-4.49-0.69-6.71c-0.15-1.1-0.31-2.2-0.5-3.3c-0.18-1.09-0.38-2.18-0.6-3.26
				c-0.33-1.62-0.69-3.22-1.1-4.81c-0.18-1.05-0.4-2.1-0.66-3.17c-0.09-0.35-0.18-0.7-0.27-1.06c-0.38-1.41-0.82-2.84-1.32-4.26
				c-0.51-1.42-1.07-2.85-1.69-4.26c-0.31-0.71-0.63-1.41-0.97-2.11c-0.17-0.36-0.34-0.71-0.52-1.06c-0.4-0.79-0.81-1.58-1.25-2.36
				c-0.13-0.25-0.27-0.5-0.42-0.75c-0.39-0.69-0.79-1.37-1.21-2.05c-0.83-1.35-1.71-2.68-2.64-3.99c-0.69-0.97-1.41-1.93-2.16-2.87
				c-2.85-3.6-6.04-6.91-9.49-9.77c-0.15-0.13-0.31-0.25-0.46-0.38c0,0,0,0-0.01,0c-0.3-0.25-0.6-0.49-0.9-0.72
				c-13.16-10.24-29.71-13.78-44.68-1.72c-20.06,18-31.33,42.59-42.41,67.01c-0.06,0.12-0.11,0.23-0.15,0.33
				c-4.36,9.6-8.69,19.17-13.53,28.3c-0.02-5.18-0.02-10.37-0.02-15.55c0.14-15.05,0.08-30.12,0.01-45.19
				c0-12.52-0.02-25.03-0.09-37.54c0-0.09,0-0.18,0-0.26c0.01-2.52,0.02-5.03,0.04-7.55c0-0.18,0-0.36,0-0.54
				c2.87,0.03,5.3-0.32,7.37-0.99c1.66-0.53,3.08-1.26,4.29-2.17c0.48-0.35,0.93-0.74,1.35-1.16c0.21-0.2,0.41-0.41,0.61-0.63
				c0,0,0,0,0.01-0.01c0.58-0.65,1.09-1.36,1.54-2.11c0.15-0.25,0.3-0.51,0.44-0.77c0.23-0.44,0.44-0.9,0.63-1.37
				c0.07-0.15,0.13-0.31,0.2-0.47c0.19-0.48,0.36-0.98,0.51-1.49c1.76-5.91,1.27-13.28,0.48-19.9c-1.21-12.03-2.73-24.02-1.89-36.22
				c0.25-17.38,11.91-50.65-15.54-50.88c0-0.17,0-0.34,0-0.51c0-4.68-0.01-9.35-0.01-14.03c0-0.15,0-0.3,0-0.45
				c0.04-14.73,0-29.47-0.03-44.21c-0.01-11.09-0.01-22.18-0.02-33.27c11.23,0.15,22.89,2.44,34.95,7.24
				c9.48,4,18.76,9.42,27.75,16.06c31.54,25.81,60.83,64.83,83.12,109.24c0.06,0.12,0.12,0.24,0.18,0.36
				C373.912,202.451,389.862,267.491,388.262,321.861z M338.612,182.471c-0.17-18.2-27.6-18.49-27.78-0.12
				c-0.04,4.33,1.48,7.62,3.82,9.9c0.46,0.45,0.96,0.86,1.48,1.23c1.04,0.74,2.19,1.32,3.4,1.74c0.4,0.14,0.81,0.26,1.23,0.37
				c4.8,1.22,10.3,0.08,13.91-3.38c0.47-0.45,0.91-0.94,1.31-1.47c0.27-0.36,0.52-0.73,0.75-1.12c0.24-0.39,0.45-0.79,0.64-1.22
				c0.2-0.42,0.37-0.86,0.52-1.32c0.07-0.23,0.14-0.47,0.21-0.7c0.19-0.72,0.33-1.48,0.42-2.27
				C338.572,183.581,338.612,183.031,338.612,182.471z"/>
			<path fill="#F7F8E3" d="M201.012,13.171c0.01,11.09,0.01,22.18,0.02,33.27C201.012,35.351,200.992,24.261,201.012,13.171z"/>
			<path fill="#F7F8E3" d="M201.012,13.171c0-0.21,0-0.42,0-0.63c11.86,0.32,23.56,3.06,34.95,7.87
				C223.902,15.611,212.242,13.321,201.012,13.171z"/>
			<path fill="#FEFEF9" d="M201.012,12.541c0,0.21,0,0.42,0,0.63c-4.21-0.07-8.37,0.17-12.46,0.69
				C192.672,13.131,196.832,12.691,201.012,12.541z"/>
			<path fill="#F7F8E3" d="M200.982,224.351c0-0.18,0-0.36,0-0.54c0.03,0,0.06,0,0.09,0c0,0.18,0,0.36,0,0.54
				C201.042,224.351,201.012,224.351,200.982,224.351z"/>
			<path fill="#54AF79" d="M201.072,223.811c-0.03,0-0.06,0-0.09,0c0-8.89,0-17.77,0-26.66
				C201.002,206.041,201.032,214.931,201.072,223.811z"/>
			<path fill="#54AF79" d="M201.072,105.641c27.45,0.23,15.79,33.5,15.54,50.88c-0.84,12.2,0.68,24.19,1.89,36.22
				c0.79,6.62,1.28,13.99-0.48,19.9c-0.16,0.51-0.33,1.01-0.51,1.49c-0.07,0.16-0.13,0.32-0.2,0.47c-0.19,0.47-0.4,0.93-0.63,1.37
				c-0.14,0.26-0.29,0.52-0.44,0.77c-0.45,0.75-0.96,1.46-1.54,2.11c-0.01,0.01-0.01,0.01-0.01,0.01c-0.2,0.21-0.4,0.43-0.61,0.63
				c-0.42,0.42-0.87,0.81-1.35,1.16c-1.22,0.9-2.63,1.64-4.29,2.17c-2.07,0.67-4.5,1.02-7.37,0.99c-0.04-8.88-0.07-17.77-0.09-26.66
				c0-21.86,0-43.73,0-65.59C201.002,122.921,201.032,114.281,201.072,105.641z"/>
			<path fill="#54AF79" d="M200.982,131.561c0-8.64,0-17.28,0-25.92c0.03,0,0.06,0,0.09,0
				C201.032,114.281,201.002,122.921,200.982,131.561z"/>
			<path fill="#54AF79" d="M257.222,234.801c14.97-12.06,31.52-8.52,44.68,1.72c0.3,0.24,0.6,0.48,0.9,0.72c0.01,0,0.01,0,0.01,0
				c0.16,0.13,0.31,0.26,0.46,0.38c3.45,2.86,6.64,6.17,9.49,9.77c0.74,0.94,1.46,1.9,2.16,2.87c0.92,1.31,1.8,2.64,2.64,3.99
				c0.41,0.68,0.82,1.36,1.21,2.05c0.14,0.25,0.28,0.5,0.42,0.75c0.43,0.78,0.85,1.57,1.25,2.36c0.18,0.35,0.35,0.7,0.52,1.06
				c0.34,0.7,0.66,1.4,0.97,2.11c0.62,1.41,1.18,2.84,1.69,4.26c0.5,1.42,0.94,2.85,1.32,4.26c0.09,0.36,0.18,0.71,0.27,1.06
				c0.26,1.07,0.48,2.12,0.66,3.17c0.41,1.59,0.77,3.19,1.1,4.81c0.22,1.08,0.42,2.16,0.6,3.26c0.18,1.09,0.35,2.19,0.5,3.3
				c0.3,2.22,0.53,4.46,0.69,6.71c0.08,1.1,0.15,2.21,0.2,3.32c0.32,7.49-0.06,15.17-1.1,22.89c-0.22,1.63-0.47,3.27-0.75,4.91
				c-0.68,4.02-1.54,8.05-2.56,12.05c-0.42,1.65-0.87,3.29-1.35,4.93c-0.59,2.04-1.23,4.07-1.91,6.09c-0.04,0.15-0.09,0.3-0.15,0.45
				c-0.32,0.94-0.64,1.88-0.98,2.82c-0.34,0.95-0.69,1.89-1.05,2.83c-1.78,4.67-3.79,9.27-6,13.76c0,0-0.01,0-0.01,0.01
				c-5.32,10.77-11.85,20.87-19.39,29.78c-0.32,0.37-0.63,0.74-0.95,1.1c-1.91,2.21-3.88,4.33-5.91,6.37
				c-22.53,22.64-52.45,34.87-85.71,25.3c-0.05-9-0.12-18.01-0.18-27.03c-0.03-17.23-0.06-34.46-0.09-51.69
				c0.05-6.96,0.13-13.91,0.26-20.86c4.84-9.13,9.17-18.7,13.53-28.3c0.05-0.11,0.1-0.22,0.15-0.33
				C225.892,277.391,237.162,252.801,257.222,234.801z"/>
			<path fill="#7BC57B" d="M200.872,351.301c0.03,17.23,0.06,34.46,0.09,51.69C200.842,385.771,200.752,368.521,200.872,351.301z"/>
			<path fill="#FEFEF9" d="M201.022,499.971c-7.65-0.03-15.26-0.5-22.78-1.41c7.56,0.83,15.17,1.19,22.78,1.09
				C201.022,499.761,201.022,499.861,201.022,499.971z"/>
			<path fill="#7DC67D" d="M189.822,446.491c0.14,0.16,0.27,0.32,0.39,0.5C190.092,446.811,189.962,446.651,189.822,446.491z"/>
			<path fill="#7DC67D" d="M189.612,446.261c-0.07-0.07-0.14-0.14-0.22-0.21C189.462,446.121,189.542,446.191,189.612,446.261z"/>
			<path fill="#7BC57B" d="M201.002,429.331c-3.76-1.41-6.98-3.07-9.72-4.94c-1.95-1.34-3.66-2.78-5.14-4.32
				c-20.94-21.7,3.33-62.35,14.7-87.18c0.01,6.14,0.02,12.27,0.03,18.41c-0.12,17.22-0.03,34.47,0.09,51.69
				C200.972,411.771,200.992,420.551,201.002,429.331z"/>
			<path fill="#7DC67D" d="M179.482,446.191c-0.14,0.15-0.28,0.3-0.41,0.46C179.202,446.491,179.342,446.331,179.482,446.191z"/>
			<path fill="#7DC67D" d="M177.812,450.461c0.03-1.57,0.5-2.84,1.26-3.81c0.13-0.16,0.27-0.31,0.41-0.46
				c2.51-2.57,7.26-2.56,9.91-0.14c0.08,0.07,0.15,0.14,0.22,0.21c0.07,0.08,0.14,0.15,0.21,0.23c0.14,0.16,0.27,0.32,0.39,0.5
				c0.79,1.1,1.21,2.53,1.05,4.28C191.042,460.071,177.012,459.331,177.812,450.461z"/>
			<path fill="#34373B" d="M379.102,403.751c-87.26,166.86-334.74,132.34-374.59-51.02c-23.61-109.27,68.2-347.55,196.49-352.48
				C338.582,3.721,448.502,295.011,379.102,403.751z M201.022,499.971c36.01-0.05,71.37-10.28,101.53-29.78
				c0.14-0.07,0.27-0.15,0.4-0.25c25.67-16.06,47.48-38.33,62.18-66.05c14.94-20.76,22.18-49.49,23.13-82.03
				c3.24-56.87-13.57-120.49-41.25-175.79c-0.06-0.12-0.12-0.24-0.18-0.36c-21.74-45.46-50.6-85.26-83.12-109.24
				c-2.38-1.95-4.77-3.82-7.18-5.62c-6.98-4.31-13.84-7.76-20.57-10.44c-11.39-4.81-23.09-7.55-34.95-7.87
				c-4.18,0.15-8.34,0.59-12.46,1.32c-36.84,4.67-68.71,32.02-94.66,67.56c-0.02,0.02-0.04,0.05-0.06,0.08
				c-30.73,40.22-54.99,93.33-68.42,146.26c-10.98,32.75-14.95,68.27-11.11,102.47c1.87,28.5,8.85,53.69,21.93,72.6
				c12.91,24.35,31.38,45.82,55.8,62.22c25.61,19.28,55.5,30.19,86.21,33.51C185.762,499.471,193.372,499.941,201.022,499.971z"/>
			<path fill="#7BC57B" d="M164.732,214.481c0.51,0.34,1.03,0.67,1.56,0.98C165.762,215.151,165.242,214.821,164.732,214.481z"/>
			<path fill="#7BC57B" d="M162.322,212.821c0.46,0.35,0.94,0.68,1.42,1C163.262,213.501,162.782,213.171,162.322,212.821z"/>
			<path fill="#7BC57B" d="M159.522,210.651c0.58,0.49,1.18,0.96,1.79,1.42C160.702,211.611,160.102,211.131,159.522,210.651z"/>
			<path fill="#F7F8E3" d="M188.552,13.861c-34.64,6.04-67.23,31.66-94.66,67.56C119.842,45.881,151.712,18.531,188.552,13.861z"/>
			<path fill="#7BC57B" d="M146.092,135.151c0.89-1.64,1.86-3.23,2.91-4.79c0.78-1.16,1.61-2.3,2.49-3.41
				c0.59-0.73,1.19-1.46,1.82-2.17c0.62-0.71,1.27-1.41,1.93-2.09c0.34-0.34,0.68-0.68,1.02-1.02c0.68-0.66,1.39-1.31,2.12-1.95
				c0.72-0.63,1.46-1.25,2.23-1.86c1.15-0.89,2.34-1.76,3.59-2.59c2.48-1.64,5.15-3.12,7.99-4.4c8.12-3.67,17.71-5.77,28.79-5.74
				c0,0.17,0,0.34,0,0.51c0,8.64,0,17.28,0,25.92c-0.06,21.86-0.05,43.73,0,65.59c0,8.89,0,17.77,0,26.66c0,0.18,0,0.36,0,0.54
				c-8.47,0.02-16.08-1.21-22.82-3.45c-0.27-0.08-0.53-0.17-0.79-0.27c-4.01-1.38-7.7-3.12-11.08-5.17
				c-0.53-0.31-1.05-0.64-1.56-0.98c-0.34-0.21-0.67-0.43-0.99-0.66c-0.48-0.32-0.96-0.65-1.42-1c-0.35-0.24-0.68-0.49-1.01-0.75
				c-0.61-0.46-1.21-0.93-1.79-1.42c-1.13-0.93-2.2-1.9-3.23-2.91c-0.52-0.51-1.03-1.02-1.52-1.55c-0.49-0.51-0.97-1.03-1.43-1.57
				c-0.49-0.55-0.96-1.11-1.42-1.69c-12.02-14.86-15.8-35.21-11.31-53.5c0.22-0.9,0.46-1.79,0.72-2.68
				c0.53-1.78,1.13-3.55,1.82-5.28c0.51-1.29,1.07-2.57,1.67-3.82C145.232,136.811,145.652,135.971,146.092,135.151z"/>
			<path fill="#FEFEF9" d="M134.542,380.591c0.34-0.27,0.66-0.55,0.97-0.86C135.212,380.031,134.882,380.321,134.542,380.591z"/>
			<path fill="#FEFEF9" d="M130.622,382.741c0.41-0.14,0.8-0.3,1.19-0.48C131.422,382.441,131.032,382.601,130.622,382.741z"/>
			<path fill="#7DC67D" d="M134.002,92.281c5.92,0.05,5.58,9.63-0.46,9.22C127.352,101.511,127.772,91.521,134.002,92.281z"/>
			<path fill="#FEFEF9" d="M128.142,383.391c0.42-0.08,0.84-0.17,1.26-0.27C128.982,383.231,128.562,383.311,128.142,383.391z"/>
			<path fill="#FEFEF9" d="M118.822,382.011c0.56,0.29,1.15,0.54,1.75,0.75C119.972,382.551,119.382,382.301,118.822,382.011z"/>
			<path fill="#FEFEF9" d="M118.822,382.011c-0.57-0.29-1.11-0.62-1.63-0.99C117.712,381.391,118.252,381.721,118.822,382.011z"/>
			<path fill="#FEFEF9" d="M115.712,379.791c0.16,0.15,0.31,0.3,0.47,0.44C116.022,380.091,115.862,379.941,115.712,379.791z"/>
			<path fill="#7DC67D" d="M115.192,227.231c0.09-1.55-0.25-2.83-0.87-3.85C114.952,224.411,115.282,225.691,115.192,227.231z"/>
			<path fill="#7DC67D" d="M112.892,221.811c0.4,0.29,0.76,0.64,1.07,1.04C113.642,222.451,113.282,222.101,112.892,221.811z"/>
			<path fill="#7DC67D" d="M112.612,221.591c0.09,0.07,0.19,0.14,0.28,0.22C112.802,221.731,112.702,221.671,112.612,221.591z"/>
			<path fill="#7DC67D" d="M112.082,221.271c0.17,0.1,0.35,0.2,0.52,0.32C112.432,221.481,112.262,221.371,112.082,221.271z"/>
			<path fill="#7DC67D" d="M139.392,369.941c-0.03,4.26-1.55,7.53-3.88,9.79c-0.31,0.31-0.63,0.59-0.97,0.86
				c-0.84,0.67-1.76,1.22-2.73,1.67c-0.39,0.18-0.78,0.34-1.19,0.48c-0.4,0.15-0.81,0.27-1.22,0.38c-0.42,0.1-0.84,0.19-1.26,0.27
				c-2.53,0.42-5.17,0.21-7.57-0.63c-0.6-0.21-1.19-0.46-1.75-0.75c-0.57-0.29-1.11-0.62-1.63-0.99c-0.35-0.25-0.68-0.51-1.01-0.79
				c-0.16-0.14-0.31-0.29-0.47-0.44c-2.31-2.23-3.85-5.46-3.93-9.69C111.372,351.761,139.632,351.631,139.392,369.941z"/>
			<path fill="#7DC67D" d="M110.332,220.601c0.41,0.1,0.8,0.23,1.18,0.4C111.132,220.831,110.742,220.701,110.332,220.601z"/>
			<path fill="#FEFEF9" d="M109.282,458.581c0.12-0.24,0.23-0.48,0.32-0.72C109.512,458.101,109.412,458.341,109.282,458.581z"/>
			<path fill="#FEFEF9" d="M102.542,463.671c2.48-0.83,4.32-2,5.57-3.38C106.872,461.681,105.032,462.851,102.542,463.671z"/>
			<path fill="#FEFEF9" d="M103.922,444.371c0.53,0.45,1.03,0.91,1.49,1.38C104.942,445.281,104.452,444.821,103.922,444.371z"/>
			<path fill="#FEFEF9" d="M101.342,464.031c0.41-0.12,0.81-0.24,1.19-0.36C102.152,463.801,101.752,463.921,101.342,464.031z"/>
			<path fill="#7DC67D" d="M101.612,227.121c-0.24-5.28,4.72-7.48,8.72-6.52c0.41,0.1,0.8,0.23,1.18,0.4
				c0.19,0.08,0.38,0.17,0.57,0.27c0.18,0.1,0.35,0.21,0.52,0.32c0,0,0,0,0.01,0c0.09,0.08,0.19,0.14,0.28,0.22
				c0.39,0.29,0.75,0.64,1.07,1.04c0.13,0.17,0.25,0.35,0.36,0.53c0.62,1.02,0.96,2.3,0.87,3.85
				C115.102,236.071,101.492,235.931,101.612,227.121z"/>
			<path fill="#FEFEF9" d="M99.372,464.471c0.46-0.09,0.91-0.18,1.33-0.28C100.272,464.291,99.832,464.391,99.372,464.471z"/>
			<path fill="#F7F8E3" d="M92.032,465.051c25.59,18.54,55.2,29.76,86.21,33.51C147.532,495.241,117.642,484.331,92.032,465.051z"/>
			<path fill="#7DC67D" d="M98.992,148.761c0.23,0.32,0.45,0.65,0.65,1C99.442,149.411,99.222,149.081,98.992,148.761z"/>
			<path fill="#7DC67D" d="M99.292,162.951c-0.21,0.32-0.45,0.63-0.69,0.93C98.842,163.581,99.072,163.271,99.292,162.951z"/>
			<path fill="#7DC67D" d="M80.372,147.381c-0.14,0.13-0.27,0.26-0.4,0.4C80.102,147.631,80.242,147.501,80.372,147.381z"/>
			<path fill="#7DC67D" d="M79.972,147.781c-0.52,0.56-0.99,1.18-1.4,1.87C78.982,148.961,79.452,148.341,79.972,147.781z"/>
			<path fill="#7DC67D" d="M78.012,150.721c-0.17,0.38-0.32,0.76-0.46,1.17C77.682,151.481,77.842,151.101,78.012,150.721z"/>
			<path fill="#7DC67D" d="M77.032,154.141c0.11-0.8,0.29-1.55,0.52-2.25C77.322,152.591,77.142,153.341,77.032,154.141z"/>
			<path fill="#7DC67D" d="M80.372,147.381c5.07-4.92,14.34-4.45,18.62,1.38c0.23,0.32,0.45,0.65,0.65,1
				c1.01,1.74,1.61,3.87,1.62,6.4c-0.04,2.73-0.77,4.99-1.97,6.79c-0.22,0.32-0.45,0.63-0.69,0.93c-6.32,7.56-21.69,4.87-21.72-7.93
				c0.01-0.63,0.06-1.23,0.15-1.81c0.11-0.8,0.29-1.55,0.52-2.25c0.14-0.41,0.29-0.79,0.46-1.17c0.17-0.37,0.36-0.73,0.56-1.07
				c0.41-0.69,0.88-1.31,1.4-1.87C80.102,147.641,80.232,147.511,80.372,147.381z"/>
			<path fill="#FEFEF9" d="M25.552,227.331c-0.05,0.14-0.1,0.29-0.14,0.43c13.43-52.93,37.69-106.04,68.42-146.26
				C60.782,126.811,37.352,185.411,25.552,227.331z"/>
			<path fill="#FEFEF9" d="M53.462,389.761c-0.92-0.63-1.82-1.11-2.69-1.44C51.642,388.641,52.542,389.121,53.462,389.761z"/>
			<path fill="#FEFEF9" d="M43.162,389.491c2.11-1.73,4.62-2.25,7.4-1.25C47.792,387.261,45.282,387.771,43.162,389.491z"/>
			<path fill="#7BC57B" d="M108.292,449.371c0.11,0.19,0.23,0.39,0.33,0.58c0.03,0.05,0.06,0.1,0.09,0.15
				c0.38,0.73,0.69,1.46,0.92,2.19c0.08,0.24,0.14,0.48,0.2,0.72c0.11,0.48,0.19,0.95,0.23,1.42c0.1,1.2-0.05,2.35-0.46,3.43
				c-0.09,0.24-0.2,0.48-0.32,0.72c-0.3,0.6-0.69,1.17-1.17,1.71c-1.25,1.38-3.09,2.55-5.57,3.38c-0.01,0-0.01,0-0.01,0
				c-0.38,0.12-0.78,0.24-1.19,0.36c-0.21,0.06-0.42,0.11-0.64,0.16c-0.42,0.1-0.87,0.19-1.33,0.28c-2.48,0.57-5-0.72-7.34,0.58
				c-22.97-16.29-41.41-36.65-55.14-61.25c0.13-0.92,0.29-1.81,0.47-2.67c0.18-0.85,0.38-1.66,0.6-2.44c0-0.01,0-0.02,0-0.02
				c0.15-0.52,0.31-1.02,0.47-1.51c0.01,0,0.01,0,0-0.01c0.59-1.71,1.28-3.23,2.07-4.51c0.01-0.01,0-0.01,0-0.01
				c0.35-0.55,0.7-1.06,1.07-1.52c0.5-0.62,1.03-1.17,1.59-1.62c2.12-1.72,4.63-2.23,7.4-1.25c0.07,0.01,0.14,0.04,0.21,0.08
				c0.87,0.33,1.77,0.81,2.69,1.44c1.99,1.38,4.09,3.5,6.25,6.44c12.72,17.42,26.99,33.41,43.38,47.49
				c0.29,0.23,0.56,0.45,0.83,0.68c0.53,0.45,1.02,0.91,1.49,1.38C106.582,446.931,107.542,448.141,108.292,449.371z"/>
			<path fill="#F7F8E3" d="M92.032,465.051c-24.42-16.4-42.89-37.87-55.8-62.22c0.21,0.33,0.43,0.65,0.66,0.97
				C50.622,428.401,69.062,448.761,92.032,465.051z"/>
			<path fill="#FEFEF9" d="M76.882,155.951c0.03,12.8,15.4,15.49,21.72,7.93c0.24-0.3,0.48-0.61,0.69-0.93
				c1.2-1.8,1.93-4.06,1.97-6.79c-0.01-2.53-0.61-4.66-1.62-6.4c-0.2-0.35-0.42-0.68-0.65-1c-4.28-5.83-13.55-6.3-18.62-1.38
				c-0.13,0.12-0.27,0.25-0.4,0.4c-0.52,0.56-0.99,1.18-1.4,1.87c-0.2,0.34-0.39,0.7-0.56,1.07c-0.17,0.38-0.33,0.76-0.46,1.17
				c-0.23,0.7-0.41,1.45-0.52,2.25C76.942,154.721,76.892,155.321,76.882,155.951z M177.812,450.461
				c-0.8,8.87,13.23,9.61,13.45,0.81c0.16-1.75-0.26-3.18-1.05-4.28c-0.12-0.18-0.25-0.34-0.39-0.5c-0.07-0.08-0.14-0.15-0.21-0.23
				c-0.07-0.07-0.15-0.14-0.22-0.21c-2.65-2.42-7.4-2.43-9.91,0.14c-0.14,0.14-0.28,0.3-0.41,0.46
				C178.312,447.621,177.842,448.891,177.812,450.461z M135.512,379.731c2.33-2.26,3.85-5.53,3.88-9.79
				c0.24-18.31-28.02-18.18-27.61,0.16c0.08,4.23,1.62,7.46,3.93,9.69c0.15,0.15,0.31,0.3,0.47,0.44c0.33,0.28,0.66,0.54,1.01,0.79
				c0.52,0.37,1.06,0.7,1.63,0.99c0.56,0.29,1.15,0.54,1.75,0.75c2.4,0.84,5.04,1.05,7.57,0.63c0.42-0.08,0.84-0.16,1.26-0.27
				c0.41-0.11,0.82-0.23,1.22-0.38c0.41-0.14,0.8-0.3,1.19-0.48c0.97-0.45,1.89-1,2.73-1.67
				C134.882,380.321,135.212,380.031,135.512,379.731z M133.542,101.501c6.04,0.41,6.38-9.17,0.46-9.22
				C127.772,91.521,127.352,101.511,133.542,101.501z M101.612,227.121c-0.12,8.81,13.49,8.95,13.58,0.11
				c0.09-1.54-0.24-2.82-0.87-3.85c-0.11-0.18-0.23-0.36-0.36-0.53c-0.31-0.4-0.67-0.75-1.07-1.04c-0.09-0.08-0.19-0.15-0.28-0.22
				c-0.01,0-0.01,0-0.01,0c-0.17-0.12-0.35-0.22-0.52-0.32c-0.19-0.1-0.38-0.19-0.57-0.27c-0.38-0.17-0.77-0.3-1.18-0.4
				C106.332,219.641,101.372,221.841,101.612,227.121z M149.002,130.361c-1.05,1.55-2.02,3.15-2.91,4.79
				c-0.44,0.82-0.86,1.66-1.27,2.5c-0.6,1.25-1.16,2.53-1.67,3.82c-0.69,1.73-1.29,3.5-1.82,5.28c-0.26,0.89-0.5,1.79-0.72,2.68
				c-4.49,18.29-0.71,38.64,11.31,53.5c0.46,0.57,0.93,1.14,1.42,1.69c0.46,0.54,0.94,1.06,1.43,1.57c0.49,0.53,1,1.04,1.52,1.55
				c1.03,1.01,2.1,1.98,3.23,2.91c0.58,0.48,1.18,0.96,1.79,1.42c0.33,0.26,0.66,0.51,1.01,0.75c0.46,0.35,0.94,0.68,1.42,1
				c0.32,0.23,0.65,0.45,0.99,0.66c0.51,0.34,1.03,0.67,1.56,0.98c3.38,2.05,7.07,3.79,11.08,5.17c0.26,0.1,0.53,0.19,0.79,0.27
				c6.74,2.24,14.35,3.47,22.82,3.45c0.02,2.52,0.04,5.03,0.05,7.55c0,0.08,0,0.17,0,0.26c-0.04,12.51,0.03,25.02,0.09,37.54
				c0,15.06-0.03,30.13-0.01,45.19c-0.05,6.01-0.14,12-0.27,18c-11.37,24.83-35.64,65.48-14.7,87.18c1.47,1.54,3.18,2.99,5.14,4.32
				c2.74,1.87,5.96,3.53,9.72,4.94c0.07,4.32,0.11,8.65,0.12,12.98c-0.02,9.73-0.03,19.45-0.05,29.18c0,0.12,0,0.25,0,0.37
				c-0.04,9.27-0.09,18.53-0.05,27.79c-7.61,0.1-15.22-0.26-22.78-1.09c-31.01-3.75-60.62-14.97-86.21-33.51
				c2.34-1.3,4.86-0.01,7.34-0.58c0.46-0.08,0.9-0.18,1.33-0.28c0.22-0.05,0.43-0.1,0.64-0.16c0.41-0.11,0.81-0.23,1.19-0.36
				c0,0,0,0,0.01,0c2.49-0.82,4.33-1.99,5.57-3.38c0.48-0.54,0.87-1.11,1.17-1.71c0.13-0.24,0.23-0.48,0.32-0.72
				c0.41-1.08,0.56-2.23,0.46-3.43c-0.04-0.47-0.11-0.94-0.23-1.42c-0.06-0.24-0.12-0.48-0.2-0.72c-0.22-0.73-0.53-1.46-0.92-2.19
				c-0.03-0.05-0.06-0.1-0.09-0.15c-0.1-0.19-0.21-0.39-0.33-0.58c-0.75-1.23-1.71-2.44-2.88-3.62c-0.46-0.47-0.96-0.93-1.49-1.38
				c-0.27-0.23-0.54-0.45-0.83-0.68c-16.39-14.08-30.66-30.07-43.38-47.49c-2.16-2.94-4.26-5.06-6.25-6.44
				c-0.92-0.64-1.82-1.12-2.69-1.44c-0.07-0.04-0.14-0.07-0.21-0.08c-2.78-1-5.29-0.48-7.4,1.25c-0.56,0.45-1.09,1-1.59,1.62
				c-0.37,0.46-0.73,0.97-1.07,1.52c0,0,0.01,0,0,0.01c-0.8,1.28-1.49,2.8-2.07,4.51c0.01,0.01,0.01,0.01,0,0.01
				c-0.17,0.49-0.33,0.99-0.47,1.51c0,0,0,0.01,0,0.02c-0.23,0.78-0.43,1.6-0.6,2.44c-0.18,0.86-0.34,1.75-0.47,2.67
				c-0.23-0.32-0.45-0.64-0.66-0.97c-11.87-22.34-19.07-47.11-21.93-72.6c-2.07-31.44,2.07-66.92,11.11-102.47
				c0.04-0.14,0.09-0.29,0.14-0.43c11.8-41.92,35.23-100.52,68.28-145.83c0.02-0.03,0.04-0.06,0.06-0.08
				c27.43-35.9,60.02-61.52,94.66-67.56c4.09-0.52,8.25-0.76,12.46-0.69c-0.02,11.09,0,22.18,0.02,33.27
				c0.01,14.74,0.02,29.47,0.03,44.21c0,0.15,0,0.3,0,0.45c-0.02,4.68-0.04,9.36-0.08,14.03c-11.08-0.03-20.67,2.07-28.79,5.74
				c-2.84,1.28-5.51,2.76-7.99,4.4c-1.25,0.83-2.44,1.7-3.59,2.59c-0.76,0.6-1.5,1.21-2.23,1.86c-0.73,0.64-1.44,1.29-2.12,1.95
				c-0.35,0.34-0.69,0.68-1.02,1.02c-0.66,0.68-1.31,1.38-1.93,2.09c-0.63,0.71-1.24,1.43-1.82,2.17
				C150.612,128.061,149.782,129.201,149.002,130.361z"/>
			<path fill="#FEFEF9" d="M36.232,402.831c-13.08-18.91-20.06-44.1-21.93-72.6C17.162,355.721,24.362,380.491,36.232,402.831z"/>
			<path fill="#F7F8E3" d="M14.302,330.231c-3.84-34.2,0.13-69.72,11.11-102.47C16.372,263.311,12.232,298.791,14.302,330.231z"/>
		</g>
		<g>
		</g>
	</g>
</g>
</svg>
